# xmcd
#
# Track frame offsets:
#        150
#        14385
#        32422
#        47617
#        64307
#        79789
#        99520
#        117258
#        132593
#        150650
#        166482
#        181528
#        197114
#        213297
#        230794
#
# Disc length: 3278 seconds
#
# Revision: 0
# Processed by: cddbd v1.5.2PL0 Copyright (c) Steve Scherf et al.
# Submitted via: CDGFix 3.8c
#
DISCID=c50ccc0f
DTITLE=Various Artist - CB9111
DYEAR=1900
DGENRE=Karaoke
TTITLE0=Chartbuster - Fire and Smoke
TTITLE1=Chartbuster - Shadow Of A Doubt
TTITLE2=Chartbuster - Bring Back Your Lovin' To Me
TTITLE3=Chartbuster - Your Love's On The Line
TTITLE4=Chartbuster - Nobody Falls Like A Fool
TTITLE5=Chartbuster - Somewhere Between Right And Wrong
TTITLE6=Chartbuster - What She Is
TTITLE7=Chartbuster - Holding Her And Loving You
TTITLE8=Chartbuster - Love Out Loud
TTITLE9=Chartbuster - Angel In Disguise
TTITLE10=Chartbuster - Chance Of Lovin' You
TTITLE11=Chartbuster - Honor Bound
TTITLE12=Chartbuster - Love Don't Care
TTITLE13=Chartbuster - Once In A Blue Moon
TTITLE14=Chartbuster - Right From The Start
EXTD=
EXTT0=
EXTT1=
EXTT2=
EXTT3=
EXTT4=
EXTT5=
EXTT6=
EXTT7=
EXTT8=
EXTT9=
EXTT10=
EXTT11=
EXTT12=
EXTT13=
EXTT14=
PLAYORDER=
